<?xml version="1.0" standalone="no"?><!DOCTYPE svg PUBLIC "-//W3C//DTD SVG 1.1//EN" "http://www.w3.org/Graphics/SVG/1.1/DTD/svg11.dtd"><svg t="1719989776236" class="icon" viewBox="0 0 1063 1024" version="1.1" xmlns="http://www.w3.org/2000/svg" p-id="2003" xmlns:xlink="http://www.w3.org/1999/xlink" width="207.6171875" height="200"><path d="M1003.046212 1023.893731a61.229656 61.229656 0 0 1-52.370059-28.823221l-179.790746-291.972927c-42.17168-64.182855-111.158405-113.914724-188.414087-134.980876l-150.022502-40.951024c-105.763895-28.862597-200.226882-96.943674-259.09398-186.760295L9.786998 90.879773A57.882698 57.882698 0 0 1 28.608719 9.450236a62.214056 62.214056 0 0 1 84.107103 18.231081l163.567841 249.486239c42.998575 65.600391 111.985301 115.332259 189.240982 136.398411l150.061878 40.951025c105.724519 28.862597 200.14813 96.904298 259.093979 186.720919l180.657018 293.469214a57.882698 57.882698 0 0 1-21.144904 80.838897 61.820296 61.820296 0 0 1-31.146404 8.347709z" p-id="2004"></path></svg>