<?xml version="1.0" encoding="utf-8"?>
<!-- Generator: Adobe Illustrator 26.0.2, SVG Export Plug-In . SVG Version: 6.00 Build 0)  -->
<svg version="1.1" id="图层_1" xmlns="http://www.w3.org/2000/svg" xmlns:xlink="http://www.w3.org/1999/xlink" x="0px" y="0px"
	 viewBox="0 0 200 200" style="enable-background:new 0 0 200 200;" xml:space="preserve">
<style type="text/css">
	.st0{fill:#FFFFFF;}
</style>
<path d="M100,191.7c-50.4,0-91.7-41.2-91.7-91.7S49.6,8.3,100,8.3s91.7,41.2,91.7,91.7S150.4,191.7,100,191.7L100,191.7z"/>
<path class="st0" d="M124.7,142c-3,0-5.9-1.4-8.3-4.1c-4.7-5.5-4.7-13.7,0-19.1l15.4-17.8l-15.4-17.8c-4.7-5.5-4.7-13.7,0-19.1
	c4.7-5.4,11.8-5.5,16.6,0l23.7,27.3c4.7,5.5,4.7,13.7,0,19.1l-23.8,27.4C130.6,140.6,127.6,142,124.7,142L124.7,142z M77.3,142
	c-3,0-5.9-1.4-8.3-4.1l-23.7-27.3c-4.7-5.5-4.7-13.7,0-19.1L69,64.1c4.7-5.5,11.8-5.5,16.6,0c4.7,5.5,4.7,13.7,0,19.1L70.2,101
	l15.4,17.8c4.7,5.5,4.7,13.7,0,19.1C83.2,140.6,80.2,142,77.3,142L77.3,142z"/>
</svg>
