<svg t="1714812901612" class="icon" viewBox="0 0 1024 1024" version="1.1" xmlns="http://www.w3.org/2000/svg" p-id="5437" data-darkreader-inline-fill="" width="200" height="200"><path d="M204.8 204.8V136.533333h68.266667v68.266667h68.266666v68.266667H273.066667v68.266666H204.8V273.066667H136.533333V204.8h68.266667zM68.266667 0h341.333333a68.266667 68.266667 0 0 1 68.266667 68.266667v341.333333a68.266667 68.266667 0 0 1-68.266667 68.266667H68.266667a68.266667 68.266667 0 0 1-68.266667-68.266667V68.266667a68.266667 68.266667 0 0 1 68.266667-68.266667z m0 68.266667v341.333333h341.333333V68.266667H68.266667z m0 477.866666h341.333333a68.266667 68.266667 0 0 1 68.266667 68.266667v341.333333a68.266667 68.266667 0 0 1-68.266667 68.266667H68.266667a68.266667 68.266667 0 0 1-68.266667-68.266667V614.4a68.266667 68.266667 0 0 1 68.266667-68.266667z m0 68.266667v341.333333h341.333333V614.4H68.266667z m68.266666 136.533333h204.8v68.266667H136.533333v-68.266667zM614.4 0h341.333333a68.266667 68.266667 0 0 1 68.266667 68.266667v887.466666a68.266667 68.266667 0 0 1-68.266667 68.266667H614.4a68.266667 68.266667 0 0 1-68.266667-68.266667V68.266667a68.266667 68.266667 0 0 1 68.266667-68.266667z m0 68.266667v887.466666h341.333333V68.266667H614.4z m68.266667 341.333333h204.8v68.266667h-204.8V409.6z m0 136.533333h204.8v68.266667h-204.8V546.133333z" p-id="5438" data-darkreader-inline-fill="" style="--darkreader-inline-fill: #535a5d;"></path></svg>
