<svg t="1714813055187" class="icon" viewBox="0 0 1024 1024" version="1.1" xmlns="http://www.w3.org/2000/svg" p-id="7581" data-darkreader-inline-fill="" width="200" height="200"><path d="M102.451775 213.027476c26.547296 0 48.141423-21.584539 48.141423-48.150052 0-26.536749-21.595086-48.15197-48.141423-48.15197-26.645094 0-48.160599 21.615221-48.160599 48.15197C54.291176 191.442936 75.806682 213.027476 102.451775 213.027476z" p-id="7582"></path><path d="M514.833258 213.027476c26.544419 0 48.141423-21.584539 48.141423-48.150052 0-26.536749-21.597004-48.15197-48.141423-48.15197-26.645094 0-48.180734 21.615221-48.180734 48.15197C466.652524 191.442936 488.188165 213.027476 514.833258 213.027476z" p-id="7583"></path><path d="M925.297139 213.027476c26.545378 0 48.141423-21.584539 48.141423-48.150052 0-26.536749-21.597004-48.15197-48.141423-48.15197-26.645094 0-48.180734 21.615221-48.180734 48.15197C877.116404 191.442936 898.652045 213.027476 925.297139 213.027476z" p-id="7584"></path><path d="M103.410577 803.8563c-26.645094 0-48.160599 21.604674-48.160599 48.150052 0 26.567431 21.515506 48.15197 48.160599 48.15197 26.547296 0 48.141423-21.584539 48.141423-48.15197C151.552 825.460974 129.956914 803.8563 103.410577 803.8563z" p-id="7585"></path><path d="M515.79206 803.8563c-26.645094 0-48.180734 21.604674-48.180734 48.150052 0 26.567431 21.53564 48.15197 48.180734 48.15197 26.544419 0 48.141423-21.584539 48.141423-48.15197C563.933483 825.460974 542.336479 803.8563 515.79206 803.8563z" p-id="7586"></path><path d="M926.25594 803.8563c-26.645094 0-48.180734 21.604674-48.180734 48.150052 0 26.567431 21.53564 48.15197 48.180734 48.15197 26.545378 0 48.141423-21.584539 48.141423-48.15197C974.397363 825.460974 952.80036 803.8563 926.25594 803.8563z" p-id="7587"></path><path d="M975.148105 507.499386c0-64.841828-21.371685-119.718831-61.804345-158.697948-40.342532-38.891865-97.101663-59.449528-164.142022-59.449528-121.692045 0-196.842906 86.807011-234.582292 147.685154-37.705828-60.881978-112.882577-147.838562-234.68009-147.838562-67.039401 0-123.799491 20.556704-164.142022 59.449528-40.432659 38.978157-61.803386 93.855161-61.803386 158.694112-0.02397 65.623251 21.596045 121.162787 62.523446 160.612674 40.836315 39.362637 98.303041 60.168629 166.188105 60.168629 42.170007 0 82.05615-10.819116 118.548135-32.157243 29.203176-17.077213 56.290277-40.896719 80.509603-70.801738 13.074217-16.143341 23.942232-32.355715 32.763206-47.166322 8.836315 14.851835 19.735011 31.121738 32.855251 47.320689 24.218367 29.903101 51.306427 53.724524 80.509603 70.800779 36.492944 21.338127 76.377169 32.157243 118.548135 32.157243 67.884105 0 125.350831-20.805993 166.188105-60.168629C953.550142 628.658337 975.171116 573.11976 975.148105 507.499386zM422.545738 597.280599c-41.053963 45.283236-88.103311 68.243655-139.841199 68.243655-51.422442 0-93.762157-14.469273-122.440869-41.843056-28.570367-27.270232-43.672449-67.498667-43.672449-116.33618 0-48.034996 14.847041-87.597064 42.93609-114.40803 28.196434-26.913558 69.833348-41.139296 120.411086-41.139296 52.115655 0 99.692345 22.292135 141.40788 66.25606 31.394996 33.087281 50.990981 69.91197 59.406382 87.699655l-0.001918 0.003835 0.246412 0.69609C472.977738 524.49606 453.812255 562.793468 422.545738 597.280599zM868.876464 623.835566c-28.678712 27.373783-71.017468 41.843056-122.43991 41.843056-51.737888 0-98.787236-22.960419-139.842157-68.243655-31.32021-34.546577-50.498157-72.918772-58.494562-90.921228 8.255281-17.55182 27.945228-54.846322 59.693064-88.305618 41.716494-43.963925 89.293184-66.25606 141.40788-66.25606 50.577738 0 92.21561 14.225738 120.412045 41.139296 28.089049 26.810966 42.935131 66.373034 42.935131 114.40803C912.548914 556.33594 897.44779 596.564375 868.876464 623.835566z" p-id="7588"></path></svg>
