<svg t="1714813321697" class="icon" viewBox="0 0 1024 1024" version="1.1" xmlns="http://www.w3.org/2000/svg" p-id="18237" data-darkreader-inline-fill="" width="200" height="200"><path d="M955.77761 68.657477v667.887236H68.657477V68.657477h887.120133m40.958972-68.657477H27.442511A27.596107 27.596107 0 0 0 0 27.442511v750.317167a27.596107 27.596107 0 0 0 27.442511 27.49371h969.498866a27.596107 27.596107 0 0 0 27.49371-27.49371V27.442511A27.596107 27.596107 0 0 0 996.941377 0z" p-id="18238"></path><path d="M783.340338 296.184566a34.354338 34.354338 0 0 0-48.58758 0l-140.284479 140.23328-137.622146-137.46855a33.381562 33.381562 0 0 0-2.559936-2.815929 34.66153 34.66153 0 0 0-48.843574 0 33.381562 33.381562 0 0 0-2.559935 2.815929L241.248345 460.788434a34.303139 34.303139 0 0 0 0 48.536382 34.303139 34.303139 0 0 0 48.536381 0L430.069205 369.091536l140.028486 140.028485a34.610331 34.610331 0 0 0 48.792375 0L783.340338 344.669749a34.354338 34.354338 0 0 0 0-48.485183z m1.740756 659.132256l-71.934194-9.369365a36.197491 36.197491 0 0 0-3.430314-8.39659l-94.308033-163.3239a34.354338 34.354338 0 0 0-46.898023-12.594884 34.25194 34.25194 0 0 0-12.594883 46.846824l73.009367 126.460826-95.895193-12.441288a95.99759 95.99759 0 0 0-24.831377 0L398.274803 936.936483 476.148049 802.232664a34.303139 34.303139 0 0 0-12.543685-46.898023 34.354338 34.354338 0 0 0-47.102818 12.646083l-97.994341 169.570143a34.25194 34.25194 0 0 0-3.839903 10.239743L255.993575 955.316822A34.354338 34.354338 0 1 0 255.993575 1023.974298l252.051273-32.715979a95.99759 95.99759 0 0 1 24.831377 0L784.8763 1023.974298a34.354338 34.354338 0 1 0 0-68.657476z" p-id="18239"></path></svg>
