<svg t="1714813124574" class="icon" viewBox="0 0 1024 1024" version="1.1" xmlns="http://www.w3.org/2000/svg" p-id="10585" data-darkreader-inline-fill="" width="200" height="200"><path d="M452.266667 204.8H136.533333v404.155733l186.402134-185.890133a51.2 51.2 0 0 1 72.362666 0.0512l73.275734 73.284267-48.273067 48.273066-61.226667-61.2352L136.533333 705.365333V819.2h315.733334v68.266667H119.466667a51.2 51.2 0 0 1-51.2-51.2V187.733333a51.2 51.2 0 0 1 51.2-51.2h332.8v68.266667zM571.733333 204.8h315.733334v395.6992l-41.088-40.9344a51.2 51.2 0 0 0-72.2944 0.017067L653.1072 680.226133l-51.566933-51.5584-48.273067 48.273067 63.616 63.616a51.2 51.2 0 0 0 72.362667 0.042667l121.002666-120.669867L887.466667 696.874667V819.2H571.733333v68.266667h332.8a51.2 51.2 0 0 0 51.2-51.2V187.733333a51.2 51.2 0 0 0-51.2-51.2H571.733333v68.266667z" p-id="10586"></path><path d="M802.133333 358.4a68.266667 68.266667 0 1 1-136.533333 0 68.266667 68.266667 0 0 1 136.533333 0z" p-id="10587"></path><path d="M486.4 118.2208V51.2h51.2v67.0208h-51.2z m0 184.32V168.4992h51.2v134.058667h-51.2z m0 184.32V352.8192h51.2v134.058667h-51.2z m0 184.32V537.147733h51.2v134.050134h-51.2z m0 184.328533v-134.058666h51.2v134.058666h-51.2zM486.4 972.8v-67.029333h51.2V972.8h-51.2z" p-id="10588"></path></svg>
